<?xml version="1.0" encoding="utf-8"?>
<svg id="master-artboard" viewBox="0 0 64 64" version="1.1" xmlns="http://www.w3.org/2000/svg" x="0px" y="0px" style="enable-background:new 0 0 1400 980;" width="64px" height="64px"><rect id="ee-background" x="0" y="0" width="64" height="64" style="fill: white; fill-opacity: 0; pointer-events: none;"/><defs><style id="ee-google-fonts">@import url(https://fonts.googleapis.com/css?family=Abril+Fatface:400);</style></defs>














































<g transform="matrix(1, 0, 0, 1, 4.340393066408069, 4.547473237814098e-13)">
		
	</g>


















































<path d="M 7.389999866485596 1.1000003814697266 L 21.040000915527344 1.1000003814697266 L 21.040000915527344 1.8999996185302734 L 18.729999542236328 1.8999996185302734 L 18.729999542236328 20.040000915527344 C 18.729999542236328 23.81999969482422 17.876667022705078 26.56999969482422 16.170000076293945 28.290000915527344 C 14.463333129882812 30.016666412353516 11.899999618530273 30.8799991607666 8.479999542236328 30.8799991607666 C 6.2133331298828125 30.8799991607666 4.416666507720947 30.446666717529297 3.0899999141693115 29.579999923706055 C 1.756666660308838 28.706666946411133 1.090000033378601 27.48666763305664 1.090000033378601 25.920000076293945 C 1.090000033378601 24.719999313354492 1.4266666173934937 23.77666664123535 2.0999999046325684 23.09000015258789 C 2.7733333110809326 22.40333366394043 3.690000057220459 22.060001373291016 4.849999904632568 22.060001373291016 C 6.010000228881836 22.060001373291016 6.880000114440918 22.35333251953125 7.460000038146973 22.940000534057617 C 8.033333778381348 23.52666664123535 8.319999694824219 24.233333587646484 8.319999694824219 25.059999465942383 C 8.319999694824219 25.886667251586914 8.16333293914795 26.719999313354492 7.849999904632568 27.559999465942383 L 6.21999979019165 27.559999465942383 C 5.9666666984558105 27.979999542236328 5.840000152587891 28.380001068115234 5.840000152587891 28.760000228881836 C 5.840000152587891 29.133333206176758 6.03000020980835 29.453332901000977 6.409999847412109 29.719999313354492 C 6.7833333015441895 29.98666763305664 7.28000020980835 30.1200008392334 7.900000095367432 30.1200008392334 C 9.020000457763672 30.1200008392334 9.739999771118164 29.68000030517578 10.0600004196167 28.799999237060547 C 10.380000114440918 27.920000076293945 10.539999961853027 26.010000228881836 10.539999961853027 23.06999969482422 L 10.539999961853027 1.8999996185302734 L 7.389999866485596 1.8999996185302734 L 7.389999866485596 1.1000003814697266 ZM 34.94384002685547 30.040000915527344 C 36.343841552734375 30.040000915527344 37.58384323120117 29.65999984741211 38.663841247558594 28.899999618530273 C 39.73717498779297 28.14666748046875 40.273841857910156 27.00666618347168 40.273841857910156 25.479999542236328 C 40.273841857910156 23.953332901000977 39.69384002685547 22.78333282470703 38.533843994140625 21.970001220703125 C 37.37384033203125 21.163333892822266 35.72384262084961 20.456666946411133 33.58384323120117 19.850000381469727 C 31.437175750732422 19.25 29.880508422851562 18.726665496826172 28.913841247558594 18.279998779296875 C 27.947175979614258 17.833332061767578 27.03050994873047 17.243331909179688 26.163841247558594 16.510000228881836 C 24.430509567260742 15.056666374206543 23.5638427734375 12.803333282470703 23.5638427734375 9.75 C 23.5638427734375 7.25666618347168 24.453842163085938 5.116666793823242 26.233842849731445 3.3299999237060547 C 28.00717544555664 1.5366668701171875 30.433841705322266 0.6399993896484375 33.51384353637695 0.6399993896484375 C 35.000511169433594 0.6399993896484375 36.547176361083984 0.8566665649414062 38.15384292602539 1.2900009155273438 C 39.767173767089844 1.7233333587646484 40.7705078125 1.9400005340576172 41.163841247558594 1.9400005340576172 C 41.550506591796875 1.9400005340576172 41.900508880615234 1.6599998474121094 42.213844299316406 1.1000003814697266 L 42.67384338378906 1.1000003814697266 L 42.963844299316406 9.579999923706055 L 42.29384231567383 9.579999923706055 C 40.947174072265625 7.14666748046875 39.54050827026367 5.193332672119141 38.07384490966797 3.719999313354492 C 36.60050964355469 2.2533340454101562 35.003841400146484 1.5200004577636719 33.283843994140625 1.5200004577636719 C 31.5638427734375 1.5200004577636719 30.227176666259766 1.9200000762939453 29.273841857910156 2.719999313354492 C 28.32050895690918 3.513334274291992 27.843841552734375 4.576665878295898 27.843841552734375 5.909999847412109 C 27.843841552734375 7.236665725708008 28.41050910949707 8.25666618347168 29.543842315673828 8.969999313354492 C 30.677175521850586 9.690000534057617 32.07051086425781 10.273332595825195 33.72384262084961 10.719999313354492 C 35.377174377441406 11.166666030883789 36.463844299316406 11.473333358764648 36.98384094238281 11.639999389648438 C 37.49717712402344 11.80666732788086 38.14051055908203 12.036666870117188 38.913841247558594 12.329999923706055 C 39.680511474609375 12.629999160766602 40.310508728027344 12.940000534057617 40.80384063720703 13.260000228881836 C 41.29050827026367 13.579999923706055 41.80717468261719 13.986665725708008 42.353843688964844 14.479999542236328 C 42.900508880615234 14.966666221618652 43.32717514038086 15.50333309173584 43.63384246826172 16.09000015258789 C 44.39384460449219 17.43666648864746 44.773841857910156 19.03333282470703 44.773841857910156 20.880001068115234 C 44.773841857910156 23.906665802001953 43.82717514038086 26.336666107177734 41.933841705322266 28.170000076293945 C 40.047176361083984 30.003334045410156 37.5638427734375 30.920000076293945 34.48384094238281 30.920000076293945 C 32.88384246826172 30.920000076293945 31.057174682617188 30.709999084472656 29.003841400146484 30.290000915527344 C 26.9438419342041 29.8700008392334 25.800508499145508 29.65999984741211 25.573843002319336 29.65999984741211 C 25.187175750732422 29.65999984741211 24.810508728027344 30.079999923706055 24.4438419342041 30.920000076293945 L 23.85384178161621 30.920000076293945 L 23.433841705322266 20.920000076293945 L 24.15384292602539 20.920000076293945 C 25.380508422851562 23.360000610351562 26.953842163085938 25.489999771118164 28.873842239379883 27.309999465942383 C 30.793842315673828 29.1299991607666 32.817176818847656 30.040000915527344 34.94384002685547 30.040000915527344 Z" transform="matrix(1.3031249046325684, 0, 0, 1.3031249046325684, 0.8348761796951294, 8.77408504486084)" style="fill: rgb(67, 121, 238); white-space: pre; color: rgb(67, 121, 238);"/></svg>